# xmcd CD database file
#
# Track frame offsets:
#	178
#	10943
#	23238
#	32578
#	45723
#	58253
#	70138
#	80918
#	94520
#	108490
#	118180
#	131578
#	143675
#	156045
#	168958
#	186103
#	195493
#	210830
#	225515
#	238348
#
# Disc length: 3592 seconds
#
# Revision: 12
# Processed by: cddbd v1.5.2PL0 Copyright (c) Steve Scherf et al.
# Submitted via: CDex 1.51
#
DISCID=0c0e0614
DTITLE=Various Artist - Charly R&B Masters Vol. 9: First Ladies Of R&B
DYEAR=1994
DGENRE=Soul/R&B
TTITLE0=Barbara George - I Know
TTITLE1=Inez and Charlie Foxx - Mockingbird
TTITLE2=Jan Bradley - Mama Didn't Lie
TTITLE3=Sugar Pie Desanto - Slip-In Mules
TTITLE4=Gladys Knight and The Pips/ Letter Full Of Tears
TTITLE5=Betty Lavette - He Made A Woman Out Of Me
TTITLE6=Betty Everett - You're No Good
TTITLE7=Koko Taylor - Wang-Dang-Doodle
TTITLE8=Ella Washington - He Called Me Baby
TTITLE9=The Shirelles - Mama Said
TTITLE10=Laura Lee - Dirty Man
TTITLE11=Bessie Banks - Go Now
TTITLE12=The Jellybeans - I Want To Love Him So Bad
TTITLE13=Fontella Bass - Rescue Me
TTITLE14=Mitty Collier - I Had A Talk With My Man
TTITLE15=The Dixie Cups - Iko Iko
TTITLE16=Esther Phillips - Release Me
TTITLE17=Betty Harris - Cry To Me
TTITLE18=Etta James - Next Door To the Blues
TTITLE19=Irma Thomas - Wish Someone Would Care [Live]
EXTD=YEAR: 1994
EXTT0=
EXTT1=
EXTT2=
EXTT3=
EXTT4=
EXTT5=
EXTT6=
EXTT7=
EXTT8=
EXTT9=
EXTT10=
EXTT11=
EXTT12=
EXTT13=
EXTT14=
EXTT15=
EXTT16=
EXTT17=
EXTT18=
EXTT19=
PLAYORDER=
